<svg width="121" height="45" viewBox="0 0 121 45" fill="none" xmlns="http://www.w3.org/2000/svg">
<path d="M3.00067 3L20.5007 38L38.0007 3" stroke="white" stroke-width="6" stroke-linecap="round"/>
<path d="M11.0007 1L20.5007 20L30.0007 1" stroke="white" stroke-width="2" stroke-linecap="round"/>
<path d="M55.2807 12.64L50.0007 27H47.5807L42.3007 12.64H44.6607L48.8407 24.44L53.0807 12.64H55.2807ZM59.8505 27.2C56.7905 27.2 54.7305 24.98 54.7305 21.64C54.7305 18.5 56.8705 16.2 59.7905 16.2C62.9505 16.2 65.0505 18.76 64.6905 22.2H56.7905C56.9505 24.36 58.0305 25.62 59.8105 25.62C61.3105 25.62 62.3505 24.8 62.6905 23.42H64.6905C64.1705 25.78 62.3505 27.2 59.8505 27.2ZM59.7505 17.72C58.1305 17.72 57.0305 18.88 56.8105 20.86H62.5505C62.4505 18.9 61.3905 17.72 59.7505 17.72ZM68.8582 21.58V27H66.8382V16.4H68.7182V18.64C69.4582 17.18 71.0582 16.26 72.7982 16.26V18.36C70.5182 18.24 68.8582 19.24 68.8582 21.58ZM76.8568 13.94C76.8568 14.7 76.2568 15.28 75.3968 15.28C74.5368 15.28 73.9168 14.7 73.9168 13.94C73.9168 13.16 74.5368 12.6 75.3968 12.6C76.2568 12.6 76.8568 13.16 76.8568 13.94ZM76.4168 27H74.3968V16.4H76.4168V27ZM91.101 12.64L85.821 27H83.401L78.121 12.64H80.481L84.661 24.44L88.901 12.64H91.101ZM95.7508 27.2C92.7508 27.2 90.5508 24.84 90.5508 21.7C90.5508 18.56 92.7508 16.2 95.7508 16.2C98.7508 16.2 100.951 18.56 100.951 21.7C100.951 24.84 98.7508 27.2 95.7508 27.2ZM95.7508 25.42C97.4908 25.42 98.8708 24.02 98.8708 21.7C98.8708 19.38 97.4908 18 95.7508 18C94.0108 18 92.6508 19.38 92.6508 21.7C92.6508 24.02 94.0108 25.42 95.7508 25.42ZM108.795 25.04V26.82C108.175 27.1 107.635 27.2 106.995 27.2C105.035 27.2 103.675 26.14 103.675 23.8V18.12H101.335V16.4H103.675V13.26H105.695V16.4H108.895V18.12H105.695V23.34C105.695 24.8 106.395 25.32 107.475 25.32C107.955 25.32 108.375 25.24 108.795 25.04ZM114.89 27.2C111.83 27.2 109.77 24.98 109.77 21.64C109.77 18.5 111.91 16.2 114.83 16.2C117.99 16.2 120.09 18.76 119.73 22.2H111.83C111.99 24.36 113.07 25.62 114.85 25.62C116.35 25.62 117.39 24.8 117.73 23.42H119.73C119.21 25.78 117.39 27.2 114.89 27.2ZM114.79 17.72C113.17 17.72 112.07 18.88 111.85 20.86H117.59C117.49 18.9 116.43 17.72 114.79 17.72Z" fill="white"/>
</svg>
