<svg width="24" height="25" viewBox="0 0 24 25" fill="none" xmlns="http://www.w3.org/2000/svg">
<g clip-path="url(#clip0_17_546)">
<path d="M18 7.5H21C21.2652 7.5 21.5196 7.60536 21.7071 7.79289C21.8946 7.98043 22 8.23478 22 8.5V20.5C22 20.7652 21.8946 21.0196 21.7071 21.2071C21.5196 21.3946 21.2652 21.5 21 21.5H3C2.73478 21.5 2.48043 21.3946 2.29289 21.2071C2.10536 21.0196 2 20.7652 2 20.5V4.5C2 4.23478 2.10536 3.98043 2.29289 3.79289C2.48043 3.60536 2.73478 3.5 3 3.5H18V7.5ZM4 9.5V19.5H20V9.5H4ZM4 5.5V7.5H16V5.5H4ZM15 13.5H18V15.5H15V13.5Z" fill="white"/>
</g>
<defs>
<clipPath id="clip0_17_546">
<rect width="24" height="24" fill="white" transform="translate(0 0.5)"/>
</clipPath>
</defs>
</svg>
