<svg width="38" height="40" viewBox="0 0 38 40" fill="none" xmlns="http://www.w3.org/2000/svg">
<path d="M24.4337 4.11515C24.4986 4.21421 24.4128 4.33666 24.2852 4.33666C21.7019 4.33666 19.6018 6.18061 19.5525 8.47196C18.6679 8.32306 17.7514 8.31187 16.8459 8.44941C16.7834 6.16853 14.6886 4.33666 12.1137 4.33666C11.986 4.33666 11.9001 4.21411 11.9651 4.11498C13.2156 2.2056 15.5394 0.922607 18.1994 0.922607C20.8595 0.922607 23.1832 2.20567 24.4337 4.11515Z" fill="url(#paint0_linear_22_13806)"/>
<path d="M32.5535 18.2867C33.4323 18.5266 34.2603 17.8303 33.9287 17.0584C31.4642 11.3223 24.17 8.97229 18.6326 8.97229C13.0845 8.97229 5.62774 11.3983 3.32377 17.0942C3.01358 17.861 3.83941 18.5344 4.70506 18.2952L17.9751 14.6292C18.3581 14.5234 18.7675 14.5229 19.1509 14.6275L32.5535 18.2867Z" fill="url(#paint1_linear_22_13806)"/>
<path d="M3.17491 19.3909L17.9669 15.3464C18.3477 15.2423 18.7541 15.242 19.1351 15.3455L34.02 19.3929C35.263 19.7308 36.1136 20.7631 36.1136 21.9336V34.1281C36.0559 37.1046 33.09 39.4904 29.7895 39.4904H24.3075C23.7656 39.4904 23.3268 39.0953 23.3268 38.6067V34.3312C23.3268 32.6477 24.4319 31.1239 26.142 30.4495C28.4345 29.5455 31.1464 28.3226 31.6565 25.8687C31.8212 25.0767 31.2484 24.3127 30.3721 24.1558C28.1564 23.7586 25.7 23.9121 23.6229 24.7497C21.2648 25.7005 20.6479 27.2823 20.4196 29.4065L20.1428 31.6949C20.0582 32.3944 19.3309 32.9302 18.5508 32.9302C17.7439 32.9302 17.1389 32.3762 17.0514 31.6525L16.7797 29.4065C16.5841 27.587 16.2295 25.8195 14.1431 24.9782C11.7632 24.0184 9.37147 23.6998 6.82718 24.1558C5.95093 24.3127 5.37808 25.0767 5.54272 25.8687C6.05725 28.344 8.74795 29.5388 11.0572 30.4495C12.7673 31.1239 13.8725 32.6477 13.8725 34.3312V38.606C13.8725 39.0945 13.4339 39.4904 12.892 39.4904H7.40979C4.10928 39.4904 1.14333 37.1046 1.08569 34.1281V21.9304C1.08569 20.7615 1.93412 19.7302 3.17491 19.3909Z" fill="url(#paint2_linear_22_13806)"/>
<defs>
<linearGradient id="paint0_linear_22_13806" x1="17.8069" y1="-1.16006" x2="30.5362" y2="40.4776" gradientUnits="userSpaceOnUse">
<stop stop-color="#F5B75E"/>
<stop offset="1" stop-color="#FF9600"/>
</linearGradient>
<linearGradient id="paint1_linear_22_13806" x1="18.2755" y1="-1.16005" x2="31.0049" y2="40.4776" gradientUnits="userSpaceOnUse">
<stop stop-color="#F5B75E"/>
<stop offset="1" stop-color="#FF9600"/>
</linearGradient>
<linearGradient id="paint2_linear_22_13806" x1="18.2562" y1="-1.16007" x2="30.9855" y2="40.4776" gradientUnits="userSpaceOnUse">
<stop stop-color="#F5B75E"/>
<stop offset="1" stop-color="#FF9600"/>
</linearGradient>
</defs>
</svg>
